<?xml version="1.0" encoding="UTF-8" standalone="no"?>
<svg
   xmlns:dc="http://purl.org/dc/elements/1.1/"
   xmlns:cc="http://creativecommons.org/ns#"
   xmlns:rdf="http://www.w3.org/1999/02/22-rdf-syntax-ns#"
   xmlns:svg="http://www.w3.org/2000/svg"
   xmlns="http://www.w3.org/2000/svg"
   id="svg851"
   version="1.1"
   viewBox="0 0 512 512"
   height="512"
   width="512">
  <metadata
     id="metadata857">
    <rdf:RDF>
      <cc:Work
         rdf:about="">
        <dc:format>image/svg+xml</dc:format>
        <dc:type
           rdf:resource="http://purl.org/dc/dcmitype/StillImage" />
        <dc:title></dc:title>
      </cc:Work>
    </rdf:RDF>
  </metadata>
  <defs
     id="defs855" />
  <path
     style="fill:#ff0000;stroke-width:21.27838516"
     id="path849"
     d="M 454.91335,2.4693243 60.370055,0.16823108 C 1.6214362,-0.17440825 1.1505466,-0.51242487 1.1505466,58.237195 l 0,396.844385 c 0,58.74962 0.4708954,59.56315 59.2195084,59.21951 L 453.7628,512 c 58.7699,-0.34377 57.89664,-0.47014 58.06897,-59.21951 L 512.98231,60.538288 C 513.15464,1.7889211 513.68325,2.8120878 454.91335,2.4693243 Z M 170.22707,405.60808 H 106.39192 V 171.54585 h 63.83515 z M 138.3095,144.56486 c -20.55492,0 -37.23717,-16.80992 -37.23717,-37.53507 0,-20.725146 16.68225,-37.535069 37.23717,-37.535069 20.55492,0 37.23717,16.809923 37.23717,37.535069 0,20.72515 -16.66097,37.53507 -37.23717,37.53507 z M 425.56769,405.60808 H 361.73253 V 286.36401 c 0,-71.66559 -85.11353,-66.23961 -85.11353,0 V 405.60808 H 212.78384 V 171.54585 H 276.619 v 37.55635 c 29.70462,-55.0259 148.94869,-59.09007 148.94869,52.68528 z" />
</svg>
